# xmcd CD database file
#
# Track frame offsets:
#	150
#	14867
#	34602
#	53645
#	69857
#	89222
#	102105
#	118495
#	138482
#	156667
#	172527
#	191870
#	208807
#	220257
#	240207
#	257337
#	278312
#	296907
#	316352
#	330000
#
# Disc length: 4640 seconds
#
# Revision: 2
# Processed by: cddbd v1.5.2PL0 Copyright (c) Steve Scherf et al.
# Submitted via: CDex 1.70beta2
#
DISCID=22121e14
DTITLE=Salsa - CD1
DYEAR=2003
DGENRE=Salsa
TTITLE0=Tito Puente - Oye ComoVo
TTITLE1=Pete Conde Rodriguez - I like it like that
TTITLE2=Ray Barretto - Indestrucstible
TTITLE3=Auben Blade - Para ser Rumbero
TTITLE4=Fania All Star - Dime Que Te Pasa
TTITLE5=Celia Cruz - Guantemara
TTITLE6=Ismael Riviera - Bilango
TTITLE7=Eddie Palmieri - Café
TTITLE8=Jonnhy Pacheco - Le Esencia Del guaguanco
TTITLE9=Menique Y Charlie Palmieri - Tiene Sabor
TTITLE10=Ricardo Ray and Bobby Cruz - Richie's Jala Jala
TTITLE11=Cheo Feliciano - El flaton
TTITLE12=Jonnhy Colon - New York Mambo
TTITLE13=Tito Puente and Celia Cruz - Ay Mi Cuba
TTITLE14=Ray Barretto - The Soul Drummer
TTITLE15=Fania All Star Con Hector Lavoie - Siento
TTITLE16=Johnny Pacheco - Anoranzas
TTITLE17=Ruben Blade - Pedro Navaja
TTITLE18=Mongo Santamaria - Last tango in Paris
TTITLE19=Joe Cuba - Bang Bang
EXTD=YEAR: 2003
EXTT0=
EXTT1=
EXTT2=
EXTT3=
EXTT4=
EXTT5=
EXTT6=
EXTT7=
EXTT8=
EXTT9=
EXTT10=
EXTT11=
EXTT12=
EXTT13=
EXTT14=
EXTT15=
EXTT16=
EXTT17=
EXTT18=
EXTT19=
PLAYORDER=
